<svg width="344" height="57" viewBox="0 0 344 57" fill="none" xmlns="http://www.w3.org/2000/svg">
<path d="M0.550781 55H-0.649219V56.2H0.550781V55ZM0.550781 0.662109V-0.537891H-0.649219V0.662109H0.550781ZM41.4512 0.662109H42.6512V-0.537891H41.4512V0.662109ZM41.4512 10.7822V11.9822H42.6512V10.7822H41.4512ZM12.1406 10.7822V9.58223H10.9406V10.7822H12.1406ZM12.1406 24.1357H10.9406V25.3357H12.1406V24.1357ZM34.9424 24.1357H36.1424V22.9357H34.9424V24.1357ZM34.9424 34.1719V35.3719H36.1424V34.1719H34.9424ZM12.1406 34.1719V32.9719H10.9406V34.1719H12.1406ZM12.1406 55V56.2H13.3406V55H12.1406ZM1.75078 55V0.662109H-0.649219V55H1.75078ZM0.550781 1.86211H41.4512V-0.537891H0.550781V1.86211ZM40.2512 0.662109V10.7822H42.6512V0.662109H40.2512ZM41.4512 9.58223H12.1406V11.9822H41.4512V9.58223ZM10.9406 10.7822V24.1357H13.3406V10.7822H10.9406ZM12.1406 25.3357H34.9424V22.9357H12.1406V25.3357ZM33.7424 24.1357V34.1719H36.1424V24.1357H33.7424ZM34.9424 32.9719H12.1406V35.3719H34.9424V32.9719ZM10.9406 34.1719V55H13.3406V34.1719H10.9406ZM12.1406 53.8H0.550781V56.2H12.1406V53.8ZM42.165 25.1855L41.0266 24.8061L41.0241 24.8138L42.165 25.1855ZM45.5664 18.8027L46.4932 19.5651L46.4991 19.5578L45.5664 18.8027ZM50.5635 14.3516L51.2048 15.3658L51.2087 15.3634L50.5635 14.3516ZM56.7363 11.6641L57.0344 12.8265L57.0446 12.8238L56.7363 11.6641ZM73.1133 12.5459L72.6365 13.6471L72.6433 13.6501L72.6501 13.6529L73.1133 12.5459ZM79.5801 17.333L80.5322 16.6026L79.5801 17.333ZM83.0654 24.1357L81.9171 24.4841L81.9182 24.4877L83.0654 24.1357ZM83.6953 38.4971V39.6971H84.7325L84.8827 38.6708L83.6953 38.4971ZM52.7051 38.4971V37.2971H51.3022L51.5196 38.683L52.7051 38.4971ZM57.1562 44.7959L56.5915 45.8547L56.5964 45.8573L57.1562 44.7959ZM80.5879 44.166H81.7879V42.5299L80.2274 43.0215L80.5879 44.166ZM80.5879 53.4463L81.1797 54.4902L81.7879 54.1454V53.4463H80.5879ZM54.3428 54.7061L53.916 55.8277L53.9279 55.8321L54.3428 54.7061ZM46.7002 49.751L45.8059 50.5511L45.8114 50.5573L45.8171 50.5634L46.7002 49.751ZM42.375 42.4443L41.2412 42.8377L41.2449 42.8479L42.375 42.4443ZM52.2852 30.6445L51.0889 30.5501L50.9867 31.8445H52.2852V30.6445ZM72.9453 30.6445V31.8445H74.1453V30.6445H72.9453ZM55.6865 23.2119L56.4768 24.115L56.4838 24.1088L55.6865 23.2119ZM42.1473 33.416C42.1473 30.5291 42.5384 27.913 43.306 25.5573L41.0241 24.8138C40.168 27.4411 39.7473 30.3121 39.7473 33.416H42.1473ZM43.3035 25.565C44.1051 23.1602 45.1741 21.1686 46.4932 19.5651L44.6397 18.0404C43.1032 19.9082 41.9047 22.1719 41.0266 24.8061L43.3035 25.565ZM46.4991 19.5578C47.8451 17.895 49.4126 16.4991 51.2048 15.3658L49.9221 13.3373C47.907 14.6116 46.1432 16.1831 44.6337 18.0477L46.4991 19.5578ZM51.2087 15.3634C53.0351 14.1987 54.9758 13.3543 57.0344 12.8265L56.4383 10.5017C54.1297 11.0936 51.9552 12.0409 49.9183 13.3398L51.2087 15.3634ZM57.0446 12.8238C59.1517 12.2637 61.3434 11.9822 63.623 11.9822V9.58223C61.1436 9.58223 58.7442 9.88866 56.428 10.5043L57.0446 12.8238ZM63.623 11.9822C67.1056 11.9822 70.1008 12.5492 72.6365 13.6471L73.5901 11.4447C70.6948 10.1911 67.3631 9.58223 63.623 9.58223V11.9822ZM72.6501 13.6529C75.2308 14.7326 77.2062 16.21 78.628 18.0634L80.5322 16.6026C78.8186 14.3688 76.4827 12.6548 73.5764 11.4389L72.6501 13.6529ZM78.628 18.0634C80.1069 19.9912 81.2027 22.1291 81.9171 24.4841L84.2138 23.7874C83.4165 21.1593 82.1887 18.762 80.5322 16.6026L78.628 18.0634ZM81.9182 24.4877C82.6349 26.8235 82.9992 29.3908 82.9992 32.1982H85.3992C85.3992 29.1827 85.0077 26.3751 84.2126 23.7838L81.9182 24.4877ZM82.9992 32.1982C82.9992 34.0328 82.8372 36.0733 82.508 38.3233L84.8827 38.6708C85.2253 36.3297 85.3992 34.171 85.3992 32.1982H82.9992ZM83.6953 37.2971H52.7051V39.6971H83.6953V37.2971ZM51.5196 38.683C52.025 41.9054 53.7347 44.3311 56.5915 45.8547L57.721 43.7371C55.5387 42.5732 54.2809 40.7997 53.8906 38.3111L51.5196 38.683ZM56.5964 45.8573C59.3663 47.3184 62.7935 48.0115 66.8145 48.0115V45.6115C63.0529 45.6115 60.0412 44.9609 57.7161 43.7345L56.5964 45.8573ZM66.8145 48.0115C70.573 48.0115 75.2972 47.0907 80.9484 45.3106L80.2274 43.0215C74.6807 44.7686 70.2226 45.6115 66.8145 45.6115V48.0115ZM79.3879 44.166V53.4463H81.7879V44.166H79.3879ZM79.9961 52.4024C76.7 54.271 71.8588 55.2697 65.3447 55.2697V57.6697C72.0442 57.6697 77.3651 56.6528 81.1797 54.4902L79.9961 52.4024ZM65.3447 55.2697C61.3132 55.2697 57.7908 54.6975 54.7576 53.58L53.9279 55.8321C57.2776 57.0662 61.0898 57.6697 65.3447 57.6697V55.2697ZM54.7696 53.5845C51.748 52.4347 49.3675 50.8778 47.5833 48.9385L45.8171 50.5634C47.8962 52.8234 50.6108 54.5699 53.916 55.8276L54.7696 53.5845ZM47.5945 48.9508C45.7965 46.9413 44.4338 44.6411 43.5051 42.0407L41.2449 42.8479C42.2758 45.7346 43.7966 48.3054 45.8059 50.5511L47.5945 48.9508ZM43.5087 42.051C42.606 39.4491 42.1473 36.5745 42.1473 33.416H39.7473C39.7473 36.8084 40.2404 39.9526 41.2413 42.8377L43.5087 42.051ZM52.2852 31.8445H72.9453V29.4445H52.2852V31.8445ZM74.1453 30.6445C74.1453 27.1232 73.2561 24.2522 71.2813 22.2445L69.5703 23.9274C70.9549 25.3351 71.7453 27.5031 71.7453 30.6445H74.1453ZM71.2813 22.2445C69.3333 20.264 66.7338 19.3244 63.623 19.3244V21.7244C66.2233 21.7244 68.1589 22.4925 69.5703 23.9274L71.2813 22.2445ZM63.623 19.3244C60.1198 19.3244 57.1694 20.2883 54.8893 22.315L56.4838 24.1088C58.2349 22.5522 60.5755 21.7244 63.623 21.7244V19.3244ZM54.8963 22.3088C52.6 24.3181 51.3603 27.1116 51.0889 30.5501L53.4814 30.739C53.7139 27.7947 54.7418 25.6331 56.4767 24.115L54.8963 22.3088ZM97.0488 30.1406L97.7108 31.1416L97.7218 31.1341L97.0488 30.1406ZM102.844 27.5371L102.542 26.3756L102.538 26.3766L102.844 27.5371ZM120.312 28.335L119.857 29.4451L121.513 30.1248V28.335H120.312ZM96.125 23.5059H94.925V25.4475L96.6617 24.5792L96.125 23.5059ZM96.125 13.2178L95.7566 12.0757L94.925 12.344V13.2178H96.125ZM131.65 55V56.2H132.85V55H131.65ZM123.126 55L121.946 55.2176L122.127 56.2H123.126V55ZM122.034 49.0791L123.214 48.8615L122.731 46.2414L121.089 48.3395L122.034 49.0791ZM115.231 54.4541L114.786 53.3399L114.781 53.3417L115.231 54.4541ZM95.2852 51.8086L94.3932 52.6114L94.4017 52.6207L95.2852 51.8086ZM105.111 45.6357L104.295 46.5152L104.305 46.5246L105.111 45.6357ZM120.312 41.3945L121.346 42.005L121.513 41.7226V41.3945H120.312ZM120.312 36.5234H121.513V35.864L120.956 35.5105L120.312 36.5234ZM105.573 36.2715L106.296 37.2293L106.299 37.2272L105.573 36.2715ZM92.7059 41.7725C92.7059 39.2907 93.1673 37.1688 94.0519 35.3743L91.8993 34.3132C90.8242 36.494 90.3059 38.9912 90.3059 41.7725H92.7059ZM94.0519 35.3743C94.944 33.5646 96.164 32.1644 97.7107 31.1416L96.3869 29.1397C94.4623 30.4124 92.9668 32.1477 91.8993 34.3132L94.0519 35.3743ZM97.7218 31.1341C99.3398 30.0381 101.146 29.2247 103.149 28.6976L102.538 26.3766C100.286 26.9693 98.2292 27.8916 96.3758 29.1471L97.7218 31.1341ZM103.145 28.6986C105.19 28.1676 107.438 27.8973 109.898 27.8973V25.4973C107.263 25.4973 104.809 25.7868 102.542 26.3756L103.145 28.6986ZM109.898 27.8973C114.095 27.8973 117.395 28.4343 119.857 29.4451L120.768 27.2249C117.911 26.052 114.268 25.4973 109.898 25.4973V27.8973ZM121.513 28.335V26.7812H119.112V28.335H121.513ZM121.513 26.7812C121.513 24.3181 120.672 22.2968 118.859 20.9391C117.111 19.6303 114.633 19.0725 111.62 19.0725V21.4725C114.402 21.4725 116.271 21.9994 117.42 22.8602C118.504 23.6721 119.112 24.9052 119.112 26.7812H121.513ZM111.62 19.0725C105.46 19.0725 100.102 20.1755 95.5883 22.4325L96.6617 24.5792C100.77 22.525 105.742 21.4725 111.62 21.4725V19.0725ZM97.325 23.5059V13.2178H94.925V23.5059H97.325ZM96.4934 14.3598C101.566 12.7234 107.151 11.8982 113.258 11.8982V9.49824C106.935 9.49824 101.098 10.3528 95.7566 12.0757L96.4934 14.3598ZM113.258 11.8982C119.217 11.8982 123.464 13.321 126.224 15.9545C128.973 18.5781 130.45 22.5997 130.45 28.251H132.85C132.85 22.2004 131.263 17.4457 127.881 14.2183C124.509 11.0009 119.56 9.49824 113.258 9.49824V11.8982ZM130.45 28.251V55H132.85V28.251H130.45ZM131.65 53.8H123.126V56.2H131.65V53.8ZM124.306 54.7824L123.214 48.8615L120.854 49.2967L121.946 55.2176L124.306 54.7824ZM121.089 48.3395C119.177 50.7825 117.072 52.4255 114.786 53.3399L115.677 55.5683C118.43 54.4671 120.86 52.5267 122.979 49.8187L121.089 48.3395ZM114.781 53.3417C112.483 54.2716 109.445 54.7658 105.615 54.7658V57.1658C109.624 57.1658 112.997 56.6523 115.681 55.5665L114.781 53.3417ZM105.615 54.7658C101.556 54.7658 98.4534 53.4821 96.1686 50.9965L94.4017 52.6207C97.212 55.678 100.997 57.1658 105.615 57.1658V54.7658ZM96.1771 51.0058C93.863 48.4346 92.7059 45.3781 92.7059 41.7725H90.3059C90.3059 45.9494 91.6682 49.5836 94.3932 52.6114L96.1771 51.0058ZM102.148 41.4785C102.148 43.4743 102.862 45.1845 104.295 46.5151L105.928 44.7564C105.009 43.9034 104.548 42.8421 104.548 41.4785H102.148ZM104.305 46.5246C105.782 47.8644 107.72 48.4734 109.982 48.4734V46.0734C108.157 46.0734 106.848 45.5907 105.918 44.7469L104.305 46.5246ZM109.982 48.4734C112.188 48.4734 114.33 47.8965 116.393 46.7738L115.246 44.6657C113.502 45.6146 111.752 46.0734 109.982 46.0734V48.4734ZM116.393 46.7738C118.485 45.6354 120.142 44.0413 121.346 42.005L119.279 40.7841C118.299 42.4431 116.961 43.7324 115.246 44.6657L116.393 46.7738ZM121.513 41.3945V36.5234H119.112V41.3945H121.513ZM120.956 35.5105C118.645 34.0429 115.803 33.3498 112.502 33.3498V35.7498C115.472 35.7498 117.837 36.3725 119.669 37.5364L120.956 35.5105ZM112.502 33.3498C109.286 33.3498 106.664 33.9367 104.848 35.3157L106.299 37.2272C107.506 36.3107 109.503 35.7498 112.502 35.7498V33.3498ZM104.85 35.3137C102.988 36.7192 102.148 38.8606 102.148 41.4785H104.548C104.548 39.3933 105.191 38.0633 106.296 37.2293L104.85 35.3137ZM141.938 4.02148L141.561 2.88226L140.738 3.15462V4.02148H141.938ZM153.738 0.116211H154.938V-1.54496L153.361 -1.02302L153.738 0.116211ZM153.738 12.168H152.538V13.368H153.738V12.168ZM166.882 12.168H168.082V10.968H166.882V12.168ZM166.882 21.2803V22.4803H168.082V21.2803H166.882ZM153.738 21.2803V20.0803H152.538V21.2803H153.738ZM153.738 40.3867H152.538V40.3961L152.538 40.4055L153.738 40.3867ZM155.208 44.25L154.445 45.1763L154.46 45.1885L154.475 45.2001L155.208 44.25ZM165.832 43.998H167.032V41.8786L165.215 42.9691L165.832 43.998ZM165.832 53.8662L166.444 54.8982L167.032 54.5495V53.8662H165.832ZM143.138 42.4443V4.02148H140.738V42.4443H143.138ZM142.316 5.16071L154.115 1.25544L153.361 -1.02302L141.561 2.88226L142.316 5.16071ZM152.538 0.116211V12.168H154.938V0.116211H152.538ZM153.738 13.368H166.882V10.968H153.738V13.368ZM165.682 12.168V21.2803H168.082V12.168H165.682ZM166.882 20.0803H153.738V22.4803H166.882V20.0803ZM152.538 21.2803V40.3867H154.938V21.2803H152.538ZM152.538 40.4055C152.569 42.3853 153.116 44.0821 154.445 45.1763L155.971 43.3237C155.396 42.8502 154.963 41.9715 154.938 40.368L152.538 40.4055ZM154.475 45.2001C155.763 46.1936 157.593 46.5838 159.743 46.5838V44.1838C157.806 44.1838 156.613 43.8181 155.941 43.2999L154.475 45.2001ZM159.743 46.5838C162.397 46.5838 164.663 46.0991 166.449 45.027L165.215 42.9691C163.922 43.7447 162.129 44.1838 159.743 44.1838V46.5838ZM164.632 43.998V53.8662H167.032V43.998H164.632ZM165.22 52.8342C162.919 54.1993 159.781 54.9338 155.712 54.9338V57.3338C160.041 57.3338 163.65 56.5565 166.444 54.8982L165.22 52.8342ZM155.712 54.9338C151.304 54.9338 148.219 53.8391 146.228 51.8603C144.238 49.8829 143.138 46.8207 143.138 42.4443H140.738C140.738 47.1943 141.934 50.9768 144.536 53.5625C147.136 56.1469 150.938 57.3338 155.712 57.3338V54.9338ZM174.944 12.168V10.968H173.744V12.168H174.944ZM186.828 12.168H188.028V10.968H186.828V12.168ZM188.844 44.9639L188.033 45.8485L188.042 45.8567L188.844 44.9639ZM194.555 46.8115V48.0115H194.58L194.605 48.0105L194.555 46.8115ZM199.846 45.1318L200.516 46.1275L200.522 46.1233L200.528 46.1191L199.846 45.1318ZM203.583 40.7227L204.653 41.2657L204.783 41.0097V40.7227H203.583ZM203.583 12.168V10.968H202.383V12.168H203.583ZM215.425 12.168H216.625V10.968H215.425V12.168ZM215.425 55V56.2H216.625V55H215.425ZM204.969 55H203.769V56.2H204.969V55ZM204.969 48.0293H206.169L203.894 47.4948L204.969 48.0293ZM179.018 52.3545L178.165 53.1987L179.018 52.3545ZM176.144 40.5547V12.168H173.744V40.5547H176.144ZM174.944 13.368H186.828V10.968H174.944V13.368ZM185.628 12.168V38.4131H188.028V12.168H185.628ZM185.628 38.4131C185.628 41.656 186.312 44.2708 188.033 45.8485L189.655 44.0793C188.688 43.1934 188.028 41.441 188.028 38.4131H185.628ZM188.042 45.8567C189.697 47.3426 191.92 48.0115 194.555 48.0115V45.6115C192.318 45.6115 190.734 45.0486 189.646 44.071L188.042 45.8567ZM194.605 48.0105C196.798 47.9178 198.779 47.2958 200.516 46.1275L199.176 44.1362C197.833 45.0395 196.287 45.5373 194.504 45.6126L194.605 48.0105ZM200.528 46.1191C202.251 44.9283 203.622 43.297 204.653 41.2657L202.513 40.1796C201.64 41.8996 200.52 43.2077 199.164 44.1446L200.528 46.1191ZM204.783 40.7227V12.168H202.383V40.7227H204.783ZM203.583 13.368H215.425V10.968H203.583V13.368ZM214.225 12.168V55H216.625V12.168H214.225ZM215.425 53.8H204.969V56.2H215.425V53.8ZM206.169 55V48.0293H203.769V55H206.169ZM203.894 47.4948C202.59 50.1165 200.807 52.0384 198.551 53.3154C196.287 54.5975 193.475 55.2697 190.062 55.2697V57.6697C193.787 57.6697 197.029 56.9352 199.734 55.4039C202.447 53.8674 204.548 51.5691 206.043 48.5638L203.894 47.4948ZM190.062 55.2697C185.665 55.2697 182.316 53.9808 179.87 51.5103L178.165 53.1987C181.15 56.2152 185.164 57.6697 190.062 57.6697V55.2697ZM179.87 51.5103C177.443 49.0575 176.144 45.4685 176.144 40.5547H173.744C173.744 45.887 175.162 50.1645 178.165 53.1987L179.87 51.5103ZM226.847 55H225.647V56.2H226.847V55ZM226.847 12.168V10.968H225.647V12.168H226.847ZM237.261 12.168L238.455 12.0459L238.344 10.968H237.261V12.168ZM238.017 19.5586L236.823 19.6807L237.227 23.632L239.078 20.1179L238.017 19.5586ZM255.233 11.0342H256.433V10.0972L255.524 9.87001L255.233 11.0342ZM255.233 22.918L254.982 24.0913L256.433 24.4024V22.918H255.233ZM243.182 24.0098L243.718 25.0831L243.724 25.0802L243.182 24.0098ZM238.73 28.9229L237.616 28.4772L237.53 28.6918V28.9229H238.73ZM238.73 55V56.2H239.93V55H238.73ZM228.047 55V12.168H225.647V55H228.047ZM226.847 13.368H237.261V10.968H226.847V13.368ZM236.067 12.2901L236.823 19.6807L239.21 19.4365L238.455 12.0459L236.067 12.2901ZM239.078 20.1179C240.489 17.4405 242.402 15.469 244.815 14.1565C247.239 12.8387 250.233 12.1502 253.848 12.1502V9.7502C249.932 9.7502 246.522 10.4964 243.669 12.0481C240.805 13.6051 238.568 15.9378 236.955 18.9993L239.078 20.1179ZM253.848 12.1502C254.184 12.1502 254.448 12.157 254.646 12.169C254.745 12.175 254.82 12.1818 254.875 12.1885C254.933 12.1957 254.951 12.2006 254.942 12.1984L255.524 9.87001C255.133 9.77211 254.521 9.7502 253.848 9.7502V12.1502ZM254.033 11.0342V22.918H256.433V11.0342H254.033ZM255.485 21.7446C253.829 21.3899 252.107 21.2141 250.32 21.2141V23.6141C251.949 23.6141 253.502 23.7742 254.982 24.0913L255.485 21.7446ZM250.32 21.2141C247.497 21.2141 244.928 21.7798 242.639 22.9393L243.724 25.0802C245.635 24.1121 247.825 23.6141 250.32 23.6141V21.2141ZM242.645 22.9365C240.299 24.1095 238.616 25.9771 237.616 28.4772L239.845 29.3685C240.636 27.3894 241.921 25.9816 243.718 25.0831L242.645 22.9365ZM237.53 28.9229V55H239.93V28.9229H237.53ZM238.73 53.8H226.847V56.2H238.73V53.8ZM258.845 25.1855L257.706 24.8061L257.704 24.8138L258.845 25.1855ZM262.246 18.8027L263.173 19.5651L263.179 19.5578L262.246 18.8027ZM267.243 14.3516L267.885 15.3658L267.888 15.3634L267.243 14.3516ZM273.416 11.6641L273.714 12.8265L273.724 12.8238L273.416 11.6641ZM289.793 12.5459L289.316 13.6471L289.323 13.6501L289.33 13.6529L289.793 12.5459ZM296.26 17.333L297.212 16.6026L296.26 17.333ZM299.745 24.1357L298.597 24.4841L298.598 24.4877L299.745 24.1357ZM300.375 38.4971V39.6971H301.412L301.562 38.6708L300.375 38.4971ZM269.385 38.4971V37.2971H267.982L268.199 38.683L269.385 38.4971ZM273.836 44.7959L273.271 45.8547L273.276 45.8573L273.836 44.7959ZM297.268 44.166H298.468V42.5299L296.907 43.0215L297.268 44.166ZM297.268 53.4463L297.859 54.4902L298.468 54.1454V53.4463H297.268ZM271.022 54.7061L270.596 55.8277L270.608 55.8321L271.022 54.7061ZM263.38 49.751L262.486 50.5511L262.491 50.5573L262.497 50.5634L263.38 49.751ZM259.055 42.4443L257.921 42.8377L257.925 42.8479L259.055 42.4443ZM268.965 30.6445L267.769 30.5501L267.666 31.8445H268.965V30.6445ZM289.625 30.6445V31.8445H290.825V30.6445H289.625ZM272.366 23.2119L273.156 24.115L273.163 24.1088L272.366 23.2119ZM258.827 33.416C258.827 30.5291 259.218 27.913 259.986 25.5573L257.704 24.8138C256.848 27.4411 256.427 30.3121 256.427 33.416H258.827ZM259.983 25.565C260.785 23.1602 261.854 21.1686 263.173 19.5651L261.319 18.0404C259.783 19.9082 258.584 22.1719 257.706 24.8061L259.983 25.565ZM263.179 19.5578C264.525 17.895 266.092 16.4991 267.885 15.3658L266.602 13.3373C264.587 14.6116 262.823 16.1831 261.313 18.0477L263.179 19.5578ZM267.888 15.3634C269.715 14.1987 271.655 13.3543 273.714 12.8265L273.118 10.5017C270.809 11.0936 268.635 12.0409 266.598 13.3398L267.888 15.3634ZM273.724 12.8238C275.831 12.2637 278.023 11.9822 280.303 11.9822V9.58223C277.823 9.58223 275.424 9.88866 273.108 10.5043L273.724 12.8238ZM280.303 11.9822C283.785 11.9822 286.78 12.5492 289.316 13.6471L290.27 11.4447C287.374 10.1911 284.043 9.58223 280.303 9.58223V11.9822ZM289.33 13.6529C291.91 14.7326 293.886 16.21 295.308 18.0634L297.212 16.6026C295.498 14.3688 293.162 12.6548 290.256 11.4389L289.33 13.6529ZM295.308 18.0634C296.787 19.9912 297.882 22.1291 298.597 24.4841L300.893 23.7874C300.096 21.1593 298.868 18.762 297.212 16.6026L295.308 18.0634ZM298.598 24.4877C299.315 26.8235 299.679 29.3908 299.679 32.1982H302.079C302.079 29.1827 301.687 26.3751 300.892 23.7838L298.598 24.4877ZM299.679 32.1982C299.679 34.0328 299.517 36.0733 299.188 38.3233L301.562 38.6708C301.905 36.3297 302.079 34.171 302.079 32.1982H299.679ZM300.375 37.2971H269.385V39.6971H300.375V37.2971ZM268.199 38.683C268.705 41.9054 270.414 44.3311 273.271 45.8547L274.401 43.7371C272.218 42.5732 270.961 40.7997 270.57 38.3111L268.199 38.683ZM273.276 45.8573C276.046 47.3184 279.473 48.0115 283.494 48.0115V45.6115C279.733 45.6115 276.721 44.9609 274.396 43.7345L273.276 45.8573ZM283.494 48.0115C287.253 48.0115 291.977 47.0907 297.628 45.3106L296.907 43.0215C291.36 44.7686 286.902 45.6115 283.494 45.6115V48.0115ZM296.068 44.166V53.4463H298.468V44.166H296.068ZM296.676 52.4024C293.38 54.271 288.538 55.2697 282.024 55.2697V57.6697C288.724 57.6697 294.045 56.6528 297.859 54.4902L296.676 52.4024ZM282.024 55.2697C277.993 55.2697 274.47 54.6975 271.437 53.58L270.608 55.8321C273.957 57.0662 277.77 57.6697 282.024 57.6697V55.2697ZM271.449 53.5845C268.428 52.4347 266.047 50.8778 264.263 48.9385L262.497 50.5634C264.576 52.8234 267.29 54.5699 270.596 55.8276L271.449 53.5845ZM264.274 48.9508C262.476 46.9413 261.113 44.6411 260.185 42.0407L257.925 42.8479C258.956 45.7346 260.476 48.3054 262.486 50.5511L264.274 48.9508ZM260.188 42.051C259.286 39.4491 258.827 36.5745 258.827 33.416H256.427C256.427 36.8084 256.92 39.9526 257.921 42.8377L260.188 42.051ZM268.965 31.8445H289.625V29.4445H268.965V31.8445ZM290.825 30.6445C290.825 27.1232 289.936 24.2522 287.961 22.2445L286.25 23.9274C287.635 25.3351 288.425 27.5031 288.425 30.6445H290.825ZM287.961 22.2445C286.013 20.264 283.413 19.3244 280.303 19.3244V21.7244C282.903 21.7244 284.839 22.4925 286.25 23.9274L287.961 22.2445ZM280.303 19.3244C276.8 19.3244 273.849 20.2883 271.569 22.315L273.163 24.1088C274.915 22.5522 277.255 21.7244 280.303 21.7244V19.3244ZM271.576 22.3088C269.28 24.3181 268.04 27.1116 267.769 30.5501L270.161 30.739C270.394 27.7947 271.421 25.6331 273.156 24.115L271.576 22.3088ZM311.713 14.3936L310.992 13.4345L310.988 13.4375L311.713 14.3936ZM340.729 14.0576H341.929V13.3223L341.274 12.9884L340.729 14.0576ZM340.729 23.5898L340.165 24.6487L341.929 25.5898V23.5898H340.729ZM333.927 21.6162L333.684 22.7914L333.695 22.7937L333.927 21.6162ZM320.699 21.1543L321.079 22.2927L321.092 22.2882L321.106 22.2834L320.699 21.1543ZM319.188 22.2881L318.173 21.6473L318.161 21.6668L318.149 21.6868L319.188 22.2881ZM321.665 28.041L321.204 29.1487L321.217 29.1542L321.23 29.1594L321.665 28.041ZM324.646 29.0068L324.348 30.169L324.646 29.0068ZM328.426 29.8467L328.19 31.0234L328.201 31.0254L328.211 31.0273L328.426 29.8467ZM329.098 29.9727L329.333 28.796L329.098 29.9727ZM335.606 31.6523L335.219 32.788L335.231 32.7922L335.244 32.7962L335.606 31.6523ZM338.378 32.8281L337.761 33.8571L337.784 33.8715L337.809 33.8847L338.378 32.8281ZM340.604 34.3818L339.825 35.2953L339.835 35.3038L339.846 35.3121L340.604 34.3818ZM342.367 36.4814L341.309 37.0481L341.322 37.0709L341.335 37.0932L342.367 36.4814ZM343.417 39.2109L342.249 39.4875L342.254 39.5058L342.259 39.524L343.417 39.2109ZM307.514 52.3545H306.314V53.0656L306.937 53.4071L307.514 52.3545ZM307.514 42.6123L308.028 41.5281L306.314 40.7149V42.6123H307.514ZM316.038 45.5098L315.74 46.6723L315.749 46.6745L316.038 45.5098ZM330.777 40.7227L330.028 41.6597L330.048 41.6761L330.069 41.6915L330.777 40.7227ZM327.964 39.5049L327.686 40.6723L327.699 40.6754L327.712 40.6782L327.964 39.5049ZM323.933 38.665L323.689 39.84L323.701 39.8426L323.714 39.845L323.933 38.665ZM314.736 36.3975L314.259 37.4983L314.266 37.5015L314.736 36.3975ZM310.747 34.1299L310.02 35.0844L310.027 35.0899L310.034 35.0954L310.747 34.1299ZM307.892 30.4346L306.793 30.9166L306.798 30.9283L306.803 30.9399L307.892 30.4346ZM308.042 24.8916C308.042 20.6833 309.526 17.5584 312.438 15.3496L310.988 13.4375C307.405 16.1558 305.642 20.0296 305.642 24.8916H308.042ZM312.434 15.3526C315.424 13.1041 319.791 11.8982 325.696 11.8982V9.49824C319.508 9.49824 314.553 10.7559 310.992 13.4345L312.434 15.3526ZM325.696 11.8982C331.161 11.8982 335.981 12.9846 340.185 15.1268L341.274 12.9884C336.688 10.6515 331.486 9.49824 325.696 9.49824V11.8982ZM339.529 14.0576V23.5898H341.929V14.0576H339.529ZM341.294 22.531C339.862 21.7671 337.436 21.0832 334.158 20.4387L333.695 22.7937C336.968 23.437 339.078 24.0689 340.165 24.6487L341.294 22.531ZM334.17 20.4411C330.863 19.7569 327.854 19.4084 325.15 19.4084V21.8084C327.654 21.8084 330.496 22.1317 333.684 22.7913L334.17 20.4411ZM325.15 19.4084C324.099 19.4084 323.232 19.4366 322.564 19.4973L322.781 21.8875C323.345 21.8362 324.13 21.8084 325.15 21.8084V19.4084ZM322.564 19.4973C321.829 19.5642 321.07 19.7454 320.293 20.0252L321.106 22.2834C321.728 22.0592 322.285 21.9326 322.781 21.8875L322.564 19.4973ZM320.32 20.0159C319.42 20.3158 318.675 20.8518 318.173 21.6473L320.202 22.9289C320.372 22.6606 320.635 22.4408 321.079 22.2927L320.32 20.0159ZM318.149 21.6868C317.7 22.4616 317.526 23.3911 317.526 24.3877H319.926C319.926 23.6486 320.059 23.1784 320.226 22.8893L318.149 21.6868ZM317.526 24.3877C317.526 25.4702 317.839 26.459 318.507 27.2843L320.372 25.7743C320.088 25.4238 319.926 24.9849 319.926 24.3877H317.526ZM318.507 27.2843C319.151 28.0806 320.088 28.6839 321.204 29.1487L322.127 26.9333C321.226 26.5583 320.679 26.1538 320.372 25.7743L318.507 27.2843ZM321.23 29.1594C322.279 29.5675 323.319 29.9044 324.348 30.169L324.945 27.8446C324.015 27.6053 323.066 27.2984 322.1 26.9226L321.23 29.1594ZM324.348 30.169C325.357 30.4285 326.64 30.7132 328.19 31.0234L328.661 28.67C327.132 28.3643 325.896 28.0891 324.945 27.8446L324.348 30.169ZM328.211 31.0273C328.518 31.0832 328.733 31.1236 328.862 31.1494L329.333 28.796C329.182 28.7658 328.949 28.7222 328.64 28.666L328.211 31.0273ZM328.862 31.1494C330.252 31.4273 331.38 31.6751 332.25 31.8927L332.832 29.5643C331.911 29.334 330.743 29.0779 329.333 28.796L328.862 31.1494ZM332.25 31.8927C333.105 32.1064 334.093 32.4038 335.219 32.788L335.994 30.5167C334.824 30.1171 333.769 29.7985 332.832 29.5643L332.25 31.8927ZM335.244 32.7962C336.34 33.1439 337.169 33.5021 337.761 33.8571L338.995 31.7991C338.187 31.3143 337.168 30.8886 335.969 30.5085L335.244 32.7962ZM337.809 33.8847C338.449 34.2294 339.122 34.6958 339.825 35.2953L341.382 33.4683C340.574 32.7801 339.762 32.2107 338.947 31.7716L337.809 33.8847ZM339.846 35.3121C340.49 35.8375 340.971 36.417 341.309 37.0481L343.425 35.9148C342.923 34.9782 342.228 34.1579 341.362 33.4516L339.846 35.3121ZM341.335 37.0932C341.708 37.723 342.019 38.5141 342.249 39.4875L344.585 38.9344C344.311 37.7802 343.922 36.7516 343.4 35.8697L341.335 37.0932ZM342.259 39.524C342.506 40.4398 342.637 41.4939 342.637 42.6963H345.037C345.037 41.3232 344.888 40.0537 344.575 38.8978L342.259 39.524ZM342.637 42.6963C342.637 46.4272 341.067 49.4031 337.81 51.7114L339.198 53.6695C343.051 50.9387 345.037 47.2518 345.037 42.6963H342.637ZM337.81 51.7114C334.513 54.0478 330.131 55.2697 324.562 55.2697V57.6697C330.472 57.6697 335.384 56.3721 339.198 53.6695L337.81 51.7114ZM324.562 55.2697C318.386 55.2697 312.905 53.9382 308.09 51.3019L306.937 53.4071C312.144 56.2578 318.029 57.6697 324.562 57.6697V55.2697ZM308.714 52.3545V42.6123H306.314V52.3545H308.714ZM306.999 43.6965C309.278 44.7772 312.199 45.7657 315.74 46.6723L316.336 44.3473C312.878 43.4621 310.117 42.519 308.028 41.5281L306.999 43.6965ZM315.749 46.6745C319.315 47.5589 322.537 48.0115 325.402 48.0115V45.6115C322.781 45.6115 319.759 45.1963 316.327 44.345L315.749 46.6745ZM325.402 48.0115C327.443 48.0115 329.224 47.6376 330.667 46.7991L329.46 44.7243C328.495 45.2856 327.169 45.6115 325.402 45.6115V48.0115ZM330.667 46.7991C332.203 45.9057 333.069 44.5361 333.069 42.7803H330.669C330.669 43.6 330.331 44.218 329.46 44.7243L330.667 46.7991ZM333.069 42.7803C333.069 41.5258 332.496 40.4923 331.485 39.7538L330.069 41.6915C330.514 42.0168 330.669 42.3551 330.669 42.7803H333.069ZM331.527 39.7856C330.641 39.0766 329.514 38.6098 328.215 38.3315L327.712 40.6782C328.765 40.9039 329.514 41.249 330.028 41.6597L331.527 39.7856ZM328.242 38.3375C327.042 38.0518 325.678 37.7678 324.151 37.4851L323.714 39.845C325.211 40.1222 326.534 40.3981 327.686 40.6723L328.242 38.3375ZM324.176 37.4901C322.681 37.1798 321.145 36.8837 319.566 36.6019L319.145 38.9645C320.702 39.2426 322.217 39.5344 323.689 39.84L324.176 37.4901ZM319.566 36.6019C318.091 36.3383 316.638 35.903 315.207 35.2934L314.266 37.5015C315.858 38.1797 317.485 38.6682 319.145 38.9645L319.566 36.6019ZM315.214 35.2966C313.805 34.6851 312.555 33.973 311.46 33.1644L310.034 35.0954C311.29 36.0224 312.7 36.8221 314.259 37.4983L315.214 35.2966ZM311.474 33.1754C310.478 32.4162 309.64 31.3501 308.98 29.9292L306.803 30.9399C307.599 32.6545 308.665 34.0519 310.02 35.0844L311.474 33.1754ZM308.991 29.9526C308.37 28.5366 308.042 26.8586 308.042 24.8916H305.642C305.642 27.1238 306.014 29.1411 306.793 30.9166L308.991 29.9526Z" fill="url(#paint0_linear_0_324)"/>
<defs>
<linearGradient id="paint0_linear_0_324" x1="1.77236" y1="1.59568" x2="680.945" y2="55.6082" gradientUnits="userSpaceOnUse">
<stop stop-color="#5EC7EC"/>
<stop offset="1" stop-color="white"/>
</linearGradient>
</defs>
</svg>
