<svg width="33" height="42" viewBox="0 0 33 42" fill="none" xmlns="http://www.w3.org/2000/svg">
<path d="M16.9686 11.2486C15.5796 11.2534 14.1969 11.437 12.8548 11.7949C13.1006 11.3306 13.3465 10.9373 13.5596 10.5931C14.0403 9.81185 14.4173 9.19451 14.4173 8.44059V2.56222C14.4173 0.333254 9.89925 0 7.20591 0C4.51257 0 0 0.333254 0 2.56222V8.42419L1.43135 25.8735C1.45866 26.1467 1.46412 26.4198 1.47504 26.7203V26.7695C1.54542 28.709 1.99871 30.6154 2.80879 32.379C3.61887 34.1427 4.76976 35.7286 6.19522 37.0457C9.11835 39.7678 12.9688 41.274 16.9631 41.2578C25.5075 41.2578 32.4621 34.5272 32.4621 26.2505C32.4621 17.9738 25.513 11.2486 16.9686 11.2486Z" fill="#1F0242"/>
<path d="M14.2808 37.3517C19.2954 37.3517 23.3605 33.2865 23.3605 28.2719C23.3605 23.2573 19.2954 19.1921 14.2808 19.1921C9.26614 19.1921 5.20099 23.2573 5.20099 28.2719C5.20099 33.2865 9.26614 37.3517 14.2808 37.3517Z" fill="url(#paint0_linear_104_3)"/>
<path d="M14.2807 19.1865C13.9686 19.1862 13.6568 19.2027 13.3465 19.2357C12.2066 19.7147 11.1967 20.4574 10.3998 21.4028C9.60288 22.3481 9.04174 23.4691 8.7625 24.6736C8.48327 25.8781 8.49392 27.1317 8.79356 28.3313C9.09321 29.5308 9.6733 30.6421 10.4861 31.5738C11.299 32.5055 12.3213 33.231 13.4692 33.6906C14.617 34.1502 15.8576 34.3307 17.0888 34.2174C18.3201 34.1041 19.5068 33.7002 20.5515 33.0389C21.5962 32.3776 22.469 31.4777 23.0982 30.4133C23.4233 29.0777 23.4408 27.6856 23.1495 26.3422C22.8582 24.9988 22.2657 23.7391 21.4166 22.658C20.5675 21.5769 19.4841 20.7028 18.248 20.1014C17.0119 19.5001 15.6553 19.1872 14.2807 19.1865Z" fill="#1F0242"/>
<path d="M15.5208 32.0306C18.4022 32.0306 20.7381 29.6947 20.7381 26.8133C20.7381 23.9318 18.4022 21.5959 15.5208 21.5959C12.6393 21.5959 10.3035 23.9318 10.3035 26.8133C10.3035 29.6947 12.6393 32.0306 15.5208 32.0306Z" fill="#FF5855"/>
<path d="M15.4006 38.2149C15.4006 38.2149 15.4006 38.2149 15.4006 38.1876C17.9575 38.0939 20.3805 37.0208 22.1682 35.1903C23.9559 33.3599 24.9715 30.9123 25.0049 28.3539C25.0049 22.8907 20.4322 18.5202 14.7942 18.5202C13.4306 18.5167 12.0794 18.7803 10.817 19.296L11.0192 17.6024C12.5215 16.9179 14.1539 16.5657 15.8049 16.5699C22.0001 16.5699 27.0262 21.4211 27.0262 27.4033C27.0262 33.3854 22.0001 38.2422 15.8049 38.2422" fill="url(#paint1_linear_104_3)"/>
<path d="M4.74753 31.0799C5.63857 33.3604 7.2022 35.316 9.23083 36.6869C11.2595 38.0579 13.6571 38.7794 16.1054 38.7556C22.7814 38.7556 28.1899 33.5274 28.1899 27.0863C28.1899 20.6452 22.7814 15.4169 16.1054 15.4169C14.3104 15.4129 12.5358 15.7987 10.9045 16.5478L11.3962 13.5103C13.165 12.7873 15.0578 12.4161 16.9686 12.4177C24.8793 12.4177 31.293 18.6074 31.293 26.2395C31.293 33.8715 24.8793 40.0667 16.9686 40.0667C9.22186 40.0667 2.9119 34.1338 2.65513 26.7148C2.65513 26.3979 2.65514 26.081 2.60597 25.7696L1.17462 8.4132C1.17462 7.64836 3.9062 7.03101 7.1841 7.03101C10.462 7.03101 13.2209 7.64836 13.2209 8.4132C13.2209 9.79538 10.096 11.6911 10.096 19.0008L10.1233 19.3231C7.93256 20.2741 6.17038 22.0008 5.17514 24.1718C4.17991 26.3428 4.02179 28.8049 4.73114 31.0853L4.74753 31.0799Z" fill="url(#paint2_linear_104_3)"/>
<path d="M13.2427 2.56213C13.2427 1.79728 10.5385 1.17993 7.20595 1.17993C3.87342 1.17993 1.19647 1.79728 1.19647 2.56213V8.42409C3.07788 7.51426 5.14067 7.04166 7.23052 7.04166C9.32038 7.04166 11.3832 7.51426 13.2646 8.42409" fill="url(#paint3_linear_104_3)"/>
<path d="M19.5472 14.2698C19.5472 14.2698 26.103 16.3458 29.1842 22.4973C29.1842 22.5137 27.731 15.4607 19.5472 14.2698Z" fill="white"/>
<path d="M7.2059 7.35352C6.76885 7.35352 6.33726 7.35351 5.92206 7.41907C6.27716 7.91622 7.26054 9.65895 7.26054 13.6471V20.7492L8.23843 19.886C8.23843 19.886 8.23843 16.7283 8.23843 13.3302C8.23843 9.74092 10.1232 8.30411 10.8553 7.86705C9.66682 7.53559 8.4397 7.36291 7.2059 7.35352Z" fill="white"/>
<path d="M15.04 36.6194C13.308 36.6179 11.6123 36.1229 10.1515 35.1922C8.69072 34.2616 7.52543 32.9339 6.79215 31.3647C6.05888 29.7956 5.78799 28.0499 6.01124 26.3323C6.23449 24.6147 6.94263 22.9963 8.05268 21.6667C7.15305 22.4956 6.43028 23.4978 5.92781 24.6131C5.42535 25.7283 5.15359 26.9337 5.12881 28.1567C5.10404 29.3797 5.32678 30.595 5.78367 31.7297C6.24055 32.8645 6.92216 33.8951 7.78749 34.7597C8.65282 35.6243 9.68402 36.305 10.8191 36.7609C11.9542 37.2168 13.1698 37.4386 14.3928 37.4128C15.6157 37.3869 16.8208 37.1141 17.9357 36.6107C19.0505 36.1073 20.0521 35.3837 20.8802 34.4833C19.2473 35.8635 17.1781 36.6203 15.04 36.6194Z" fill="white"/>
<path d="M17.9957 39.0287C21.1713 38.7028 24.1213 37.2375 26.2997 34.9041C26.2997 34.9041 24.2619 39.056 17.9957 39.0287Z" fill="white"/>
<path d="M15.6957 25.4857C15.8963 25.5631 16.0814 25.676 16.242 25.819L18.176 22.7323C17.3857 22.2081 16.4583 21.9287 15.5099 21.9292C15.8159 22.3335 16.5097 23.5955 15.6957 25.4857Z" fill="#1F0242"/>
<path d="M16.608 26.2341C16.7388 26.4561 16.819 26.7042 16.8429 26.9607L20.3994 26.6766C20.3889 26.4183 20.3616 26.161 20.3175 25.9063C20.1205 25.2728 19.851 24.6642 19.5144 24.0925C19.5144 24.0925 19.7603 25.8025 16.608 26.2341Z" fill="#1F0242"/>
<path d="M15.488 28.8618C15.3681 28.8901 15.2453 28.9047 15.122 28.9055C15.051 28.9055 14.9854 28.9055 14.9144 28.9055L14.827 31.6699C15.0548 31.7048 15.2849 31.723 15.5154 31.7245C16.3496 31.7244 17.1698 31.51 17.8973 31.1017C17.1543 31.1236 15.6738 30.9433 15.488 28.8618Z" fill="#1F0242"/>
<path d="M15.1276 28.3812C15.8034 28.3812 16.3513 27.8259 16.3513 27.141C16.3513 26.4561 15.8034 25.9009 15.1276 25.9009C14.4517 25.9009 13.9038 26.4561 13.9038 27.141C13.9038 27.8259 14.4517 28.3812 15.1276 28.3812Z" fill="#1F0242"/>
<path d="M16.8648 27.4141C16.8134 27.7372 16.6735 28.0398 16.4605 28.2882L18.755 30.4734C19.5691 29.7619 20.1259 28.8018 20.3393 27.7418C20.2902 27.8019 19.3888 29.43 16.8648 27.4141Z" fill="#1F0242"/>
<path d="M13.7399 28.097C13.6298 28.0086 13.5466 27.8914 13.4995 27.7583L11.2596 29.2061C11.3838 29.4288 11.5263 29.6407 11.6857 29.8398C11.8556 30.0336 12.0382 30.2161 12.232 30.3861C12.792 30.9007 13.466 31.2752 14.1988 31.4787C13.8327 31.2383 12.2484 29.8015 13.7399 28.097Z" fill="#1F0242"/>
<path d="M13.4995 26.5291C13.5785 26.3117 13.7012 26.1128 13.86 25.9446L11.0192 24.9011C10.762 25.5057 10.6301 26.1562 10.6313 26.8132C10.6337 27.1046 10.6611 27.3952 10.7132 27.6819C10.9823 27.2063 11.4028 26.8344 11.9078 26.6255C12.4127 26.4166 12.973 26.3827 13.4995 26.5291Z" fill="#1F0242"/>
<path d="M14.6139 25.4638C14.7784 25.4118 14.9495 25.3842 15.122 25.3819H15.2313L14.1386 22.104C13.3157 22.3527 12.5732 22.8144 11.9861 23.4425C12.545 23.5675 13.0698 23.8132 13.5237 24.1623C13.9777 24.5115 14.3498 24.9557 14.6139 25.4638Z" fill="#1F0242"/>
<defs>
<linearGradient id="paint0_linear_104_3" x1="9.10715" y1="22.3171" x2="19.8641" y2="34.6966" gradientUnits="userSpaceOnUse">
<stop stop-color="#FF5855"/>
<stop offset="1" stop-color="#207DFF"/>
</linearGradient>
<linearGradient id="paint1_linear_104_3" x1="14.6358" y1="17.5587" x2="22.9944" y2="35.4178" gradientUnits="userSpaceOnUse">
<stop stop-color="#FF5855"/>
<stop offset="1" stop-color="#207DFF"/>
</linearGradient>
<linearGradient id="paint2_linear_104_3" x1="-0.966936" y1="10.1996" x2="17.9411" y2="27.119" gradientUnits="userSpaceOnUse">
<stop stop-color="#5A0FAE"/>
<stop offset="1" stop-color="#207DFF"/>
</linearGradient>
<linearGradient id="paint3_linear_104_3" x1="1.15277" y1="4.80201" x2="12.3795" y2="4.80201" gradientUnits="userSpaceOnUse">
<stop stop-color="#5A0FAE"/>
<stop offset="1" stop-color="#207DFF"/>
</linearGradient>
</defs>
</svg>
