<svg width="11" height="11" viewBox="0 0 11 11" fill="none" xmlns="http://www.w3.org/2000/svg">
<path d="M10.3653 5.28851C10.2113 5.28269 10.0652 5.21892 9.95627 5.10996C9.8473 5.00099 9.78353 4.85489 9.77771 4.7009V1.26928H6.25207C6.10034 1.26321 5.95685 1.19863 5.85168 1.08908C5.74652 0.979533 5.68785 0.833528 5.68797 0.681673C5.67424 0.597017 5.67921 0.510382 5.70252 0.427851C5.72584 0.345319 5.76694 0.268892 5.82294 0.203935C5.87893 0.138978 5.94847 0.0870662 6.02667 0.0518439C6.10486 0.0166216 6.18982 -0.00105715 6.27557 4.88728e-05H10.3418C10.4937 -7.26578e-05 10.6397 0.058599 10.7492 0.163763C10.8588 0.268928 10.9233 0.412418 10.9294 0.564151V4.7009C10.9294 4.85675 10.8675 5.00621 10.7573 5.1164C10.6471 5.2266 10.4977 5.28851 10.3418 5.28851H10.3653Z" fill="white"/>
<path d="M3.47852 8.156C3.40045 8.15938 3.32253 8.1465 3.2497 8.11817C3.17688 8.08985 3.11072 8.0467 3.05545 7.99147C2.98247 7.93674 2.92324 7.86577 2.88244 7.78417C2.84164 7.70258 2.8204 7.61261 2.8204 7.52139C2.8204 7.43016 2.84164 7.34019 2.88244 7.2586C2.92324 7.17701 2.98247 7.10604 3.05545 7.0513L9.9422 0.282071C9.99496 0.225859 10.0587 0.181057 10.1294 0.150431C10.2002 0.119805 10.2764 0.104004 10.3535 0.104004C10.4306 0.104004 10.5069 0.119805 10.5776 0.150431C10.6484 0.181057 10.7121 0.225859 10.7648 0.282071C10.8211 0.334826 10.8659 0.398543 10.8965 0.469288C10.9271 0.540034 10.9429 0.616305 10.9429 0.693395C10.9429 0.770485 10.9271 0.846757 10.8965 0.917503C10.8659 0.988248 10.8211 1.05196 10.7648 1.10472L3.8781 7.99147C3.8273 8.04609 3.76529 8.08908 3.69632 8.11748C3.62735 8.14588 3.55305 8.15902 3.47852 8.156V8.156Z" fill="white"/>
<path d="M10.4124 11H0.587607C0.431764 11 0.282304 10.9381 0.172106 10.8279C0.0619084 10.7177 0 10.5682 0 10.4124V0.587607C0 0.431764 0.0619084 0.282304 0.172106 0.172106C0.282304 0.0619084 0.431764 0 0.587607 0L3.94872 0C4.10456 0 4.25402 0.0619084 4.36422 0.172106C4.47442 0.282304 4.53632 0.431764 4.53632 0.587607C4.53632 0.74345 4.47442 0.89291 4.36422 1.00311C4.25402 1.11331 4.10456 1.17521 3.94872 1.17521H1.17521V9.82479H9.82479V7.05128C9.82479 6.89544 9.8867 6.74598 9.99689 6.63578C10.1071 6.52558 10.2565 6.46368 10.4124 6.46368C10.5682 6.46368 10.7177 6.52558 10.8279 6.63578C10.9381 6.74598 11 6.89544 11 7.05128V10.4124C11 10.5682 10.9381 10.7177 10.8279 10.8279C10.7177 10.9381 10.5682 11 10.4124 11Z" fill="white"/>
</svg>
