<svg width="16" height="12" viewBox="0 0 16 12" fill="none" xmlns="http://www.w3.org/2000/svg">
<path d="M14.4649 4.76102C14.2366 4.75793 14.01 4.80156 13.7985 4.88932C13.587 4.97709 13.3948 5.10722 13.2334 5.27203C13.0719 5.43684 12.9444 5.63299 12.8585 5.84891C12.7725 6.06483 12.7297 6.29615 12.7328 6.5292L7.89623 9.07815C7.57748 8.79951 7.16843 8.65214 6.74896 8.6648C6.52229 8.66624 6.29816 8.71367 6.08962 8.80435C5.88107 8.89502 5.69227 9.02712 5.5342 9.19296L1.77745 7.17218C1.57832 7.05754 1.41282 6.89064 1.29812 6.68877C1.18342 6.48689 1.12368 6.25738 1.12508 6.02401V5.31214L6.36654 8.15961C6.4474 8.18322 6.53313 8.18322 6.61399 8.15961C6.70283 8.18028 6.79509 8.18028 6.88393 8.15961L15.1848 3.75063C15.2735 3.70105 15.3475 3.62796 15.399 3.53905C15.4505 3.45014 15.4775 3.3487 15.4772 3.24543C15.4796 3.13589 15.4512 3.02796 15.3954 2.93437C15.3396 2.84078 15.2587 2.76545 15.1623 2.71727L10.4382 0.420925C9.89707 0.144127 9.30012 0 8.69482 0C8.08953 0 7.49258 0.144127 6.95142 0.420925L0.202767 3.93433C0.137819 3.98042 0.085247 4.04242 0.0498733 4.11463C0.0144995 4.18685 -0.00254369 4.26698 0.000306931 4.34768V6.02401C-0.00437156 6.46725 0.110734 6.90322 0.332976 7.28403C0.555218 7.66484 0.875994 7.97574 1.26006 8.18257L5.0618 10.2493C5.0618 10.2493 5.0618 10.2493 5.0618 10.433C5.11018 10.8643 5.31231 11.2623 5.62967 11.5513C5.94702 11.8403 6.35743 12 6.7827 12C7.20797 12 7.61838 11.8403 7.93574 11.5513C8.2531 11.2623 8.45523 10.8643 8.50361 10.433C8.51403 10.3338 8.51403 10.2337 8.50361 10.1345L13.2052 7.70034C13.3654 7.87902 13.5599 8.02218 13.7766 8.12093C13.9933 8.21969 14.2276 8.27193 14.4649 8.27443C14.8874 8.22503 15.2774 8.0187 15.5605 7.69474C15.8436 7.37079 16 6.95184 16 6.51772C16 6.0836 15.8436 5.66466 15.5605 5.3407C15.2774 5.01674 14.8874 4.81041 14.4649 4.76102ZM6.74896 11.03C6.59384 11.03 6.44507 10.9671 6.33539 10.8552C6.2257 10.7432 6.16408 10.5913 6.16408 10.433C6.14691 10.3432 6.14942 10.2506 6.17143 10.1619C6.19344 10.0733 6.23441 9.99065 6.29139 9.92003C6.34838 9.84941 6.41996 9.79254 6.50101 9.7535C6.58207 9.71446 6.67058 9.69421 6.76021 9.69421C6.84983 9.69421 6.93835 9.71446 7.0194 9.7535C7.10046 9.79254 7.17204 9.84941 7.22902 9.92003C7.28601 9.99065 7.32697 10.0733 7.34898 10.1619C7.371 10.2506 7.37351 10.3432 7.35634 10.433C7.3564 10.5134 7.34056 10.5929 7.30977 10.6669C7.27898 10.7409 7.23387 10.8077 7.17716 10.8635C7.12044 10.9193 7.05328 10.9627 6.9797 10.9914C6.90612 11.02 6.82764 11.0331 6.74896 11.03ZM14.4649 7.12625C14.377 7.14378 14.2863 7.14121 14.1994 7.11874C14.1125 7.09628 14.0316 7.05446 13.9624 6.99629C13.8932 6.93812 13.8375 6.86505 13.7993 6.78231C13.761 6.69957 13.7412 6.60921 13.7412 6.51772C13.7412 6.42623 13.761 6.33588 13.7993 6.25314C13.8375 6.1704 13.8932 6.09732 13.9624 6.03915C14.0316 5.98099 14.1125 5.93917 14.1994 5.9167C14.2863 5.89423 14.377 5.89166 14.4649 5.90919C14.6032 5.93674 14.7278 6.01251 14.8174 6.12353C14.907 6.23454 14.956 6.37389 14.956 6.51772C14.956 6.66155 14.907 6.8009 14.8174 6.91192C14.7278 7.02293 14.6032 7.0987 14.4649 7.12625Z" fill="white"/>
</svg>
