<svg width="58" height="57" viewBox="0 0 58 57" fill="none" xmlns="http://www.w3.org/2000/svg">
<g filter="url(#filter0_d_0_40)">
<path d="M4.01422 23.2307C4.14208 22.3499 4.25571 21.455 4.39777 20.5884C4.88821 17.6652 5.92439 14.8603 7.45215 12.3203C10.163 7.67641 14.3119 4.04117 19.2717 1.96401C22.6905 0.502782 26.398 -0.158114 30.1111 0.031892C35.2101 0.221331 40.1223 1.99951 44.1611 5.11776C47.9926 8.0121 50.8958 11.962 52.5144 16.4828C53.8394 20.1448 54.287 24.0666 53.8214 27.933C53.4599 31.4147 52.3293 34.7725 50.5113 37.7637C48.0412 41.973 44.3776 45.3548 39.9845 47.4808C39.0753 47.907 38.1377 48.2764 37.1432 48.6315C35.9073 49.1003 35.1543 48.6315 35.1401 47.2109C35.1401 44.8527 35.1401 42.4944 35.1401 40.1078C35.1663 39.3435 35.0347 38.582 34.7536 37.8707C34.4726 37.1595 34.048 36.5137 33.5064 35.9737L34.927 35.7464C37.0105 35.4727 39.0032 34.7243 40.7516 33.5587C42.4336 32.3846 43.6463 30.6536 44.1753 28.6718C44.9759 26.238 45.1229 23.6366 44.6015 21.1282C44.2914 19.7425 43.6367 18.4574 42.6979 17.392C42.5697 17.2647 42.4823 17.1022 42.4469 16.9251C42.4115 16.7479 42.4296 16.5643 42.499 16.3975C43.0902 14.452 42.959 12.3584 42.1296 10.5019C42.0848 10.4352 42.026 10.3791 41.9573 10.3374C41.8886 10.2957 41.8117 10.2694 41.7318 10.2604C40.8986 10.1849 40.0612 10.3475 39.3168 10.7292C38.0524 11.3401 36.8165 12.0362 35.5521 12.6613C35.3336 12.7741 35.0846 12.8139 34.8418 12.775C32.2579 12.0956 29.5741 11.8791 26.9147 12.1357C25.693 12.2635 24.4854 12.5192 23.2779 12.7607C23.1018 12.8054 22.9183 12.812 22.7395 12.7802C22.5607 12.7483 22.3907 12.6787 22.2408 12.576C20.6974 11.5472 18.9929 10.7837 17.1976 10.3172H17.0556C16.0327 10.1467 15.8054 10.3173 15.5071 11.2833C14.9248 13.0551 14.9248 14.9667 15.5071 16.7385C15.5156 16.8352 15.5049 16.9327 15.4756 17.0254C15.4463 17.118 15.3991 17.204 15.3366 17.2783C14.2095 18.5315 13.4737 20.0871 13.2199 21.7533C12.6045 25.204 13.3257 28.7596 15.2372 31.6977C16.3275 33.1985 17.8714 34.3091 19.6411 34.8657C20.9197 35.3203 22.2693 35.5334 23.5904 35.8601C23.8319 35.8601 24.0735 35.8601 24.386 35.9737C24.1527 36.2095 23.9476 36.4718 23.7751 36.7551C23.4472 37.452 23.1625 38.1684 22.9227 38.9003C22.8989 39.0402 22.8374 39.171 22.7448 39.2787C22.6522 39.3863 22.532 39.4667 22.3971 39.5111C21.0414 40.0735 19.5285 40.129 18.1352 39.6674C17.1264 39.2313 16.2916 38.4715 15.7628 37.508C15.4327 36.8795 14.9817 36.3225 14.4355 35.869C13.8894 35.4156 13.259 35.0746 12.5806 34.8657C12.0584 34.78 11.5259 34.78 11.0037 34.8657C10.6912 34.8657 10.5491 35.1356 10.7906 35.4197C10.9878 35.7185 11.2383 35.9785 11.5293 36.1868C12.7545 36.9719 13.6917 38.1335 14.2001 39.4969C14.4758 40.2979 14.9217 41.0298 15.5071 41.6421C16.554 42.5654 17.9042 43.0711 19.3002 43.0627C20.4509 43.0627 21.6016 43.0627 22.8233 43.0627V43.7304C22.8233 44.9379 22.8233 46.1312 22.8233 47.3387C22.8233 48.5462 22.0278 49.1287 20.8486 48.7593C16.1648 47.1633 12.0707 44.1929 9.10004 40.2356C6.48778 36.8492 4.80783 32.838 4.22731 28.6007C4.14207 28.0467 4.07103 27.4784 4 26.9243L4.01422 23.2307Z" fill="#5EC7EC"/>
</g>
<defs>
<filter id="filter0_d_0_40" x="0" y="0" width="58" height="56.8694" filterUnits="userSpaceOnUse" color-interpolation-filters="sRGB">
<feFlood flood-opacity="0" result="BackgroundImageFix"/>
<feColorMatrix in="SourceAlpha" type="matrix" values="0 0 0 0 0 0 0 0 0 0 0 0 0 0 0 0 0 0 127 0" result="hardAlpha"/>
<feOffset dy="4"/>
<feGaussianBlur stdDeviation="2"/>
<feComposite in2="hardAlpha" operator="out"/>
<feColorMatrix type="matrix" values="0 0 0 0 0 0 0 0 0 0 0 0 0 0 0 0 0 0 0.25 0"/>
<feBlend mode="normal" in2="BackgroundImageFix" result="effect1_dropShadow_0_40"/>
<feBlend mode="normal" in="SourceGraphic" in2="effect1_dropShadow_0_40" result="shape"/>
</filter>
</defs>
</svg>
